<?xml version="1.0" encoding="utf-8"?>
<!-- Generator: Adobe Illustrator 27.0.0, SVG Export Plug-In . SVG Version: 6.00 Build 0)  -->
<svg version="1.1" xmlns="http://www.w3.org/2000/svg" xmlns:xlink="http://www.w3.org/1999/xlink" x="0px" y="0px"
	 viewBox="0 0 1200 1200" enable-background="new 0 0 1200 1200" xml:space="preserve">
<g id="orig" display="none">
	<g id="Layer_2" display="inline">
		<circle fill="none" stroke="#000000" stroke-width="70" stroke-miterlimit="10" cx="605.2" cy="646.4" r="256.2"/>
		<circle fill="none" stroke="#000000" stroke-width="50" stroke-miterlimit="10" cx="608.7" cy="649.9" r="371"/>
	</g>
	<g id="Layer_3" display="inline">
		<path fill="#FFFFFF" d="M601.7,556.3c60.1-0.3,106.8-87,106.8-156.5S627.3-4.2,601.7-4.1S501,303.6,501,398.2
			S541.6,556.5,601.7,556.3z"/>
		<path fill="#FFFFFF" d="M655.9,740.3C707.2,710,793.6,759.5,831,818c45,70.5,142.9,392.3,136.7,395.9
			c-21.8,12.9-261.7-209.5-312.6-289.3S604.5,770.6,655.9,740.3z"/>
		<path fill="#FFFFFF" d="M556.4,735.4c52,29.2,47.7,126.4,11.9,186.1c-35.7,59.7-283.2,310.3-305.3,297.9
			c-22.1-12.4,76.1-315.3,124.8-396.7S504.5,706.2,556.4,735.4z"/>
		<path fill="#FFFFFF" d="M508.3,651.7c20.2-54.6-44.6-125.4-109.1-148.3c-64.5-22.9-402.9-53.7-411.5-30.5
			c-8.6,23.2,251.6,186.7,339.5,218S488.1,706.3,508.3,651.7z"/>
		<path fill="#FFFFFF" d="M688.4,638.6c-16.6-55.8,52.3-122.2,118-140.8c65.6-18.6,404.6-38.1,411.7-14.4
			c7.1,23.7-262.6,180.8-352.1,206.2S705,694.4,688.4,638.6z"/>
	</g>
	<g id="Layer_1" display="inline">
		<g>
			<circle cx="604.2" cy="649.4" r="102.5"/>
		</g>
		<path d="M602.7,506.1c40-0.2,71-60,71-107.8s-54-388.4-71-388.3s-67,322-67,387.3S562.7,506.2,602.7,506.1z"/>
		<path d="M684.3,775.7c34.7-19.8,91.2,16,114.9,57c23.7,41,163.3,348.7,148.5,357.2c-14.7,8.5-235.2-231.3-267.5-287.2
			C647.9,846.7,649.5,795.6,684.3,775.7z"/>
		<path d="M529.1,776.8c34.6,20.2,31.7,87.1,7.9,128.2c-23.8,41.2-242.7,293.4-257.4,284.8S384.6,893.1,417,837
			S494.6,756.7,529.1,776.8z"/>
		<path d="M457.1,616.6c10.2-38.7-36.9-83.4-81-95.2c-44.1-11.8-347.1-53.9-351.5-37.5c-4.4,16.4,254.6,154.4,314.7,170.5
			C399.5,670.5,446.9,655.3,457.1,616.6z"/>
		<path d="M751.4,619.3c-10.2-38.7,36.7-83.3,80.6-95.1s348.3-49.8,352.7-33.3c4.4,16.4-256,150.3-315.9,166.4
			S761.6,658,751.4,619.3z"/>
	</g>
</g>
<g id="final">
	<g id="Layer_3_copy">
		<g>
			<path d="M861.3,689.5c-15.9,4.5-31.2,7.6-45.8,9.2c-6.2,25.8-17.1,50.3-32.2,72.3c17.1,13.7,32,30,42.9,46.9
				c1.4,2.2,2.8,4.5,4.3,7.1c32.9-42.2,53.4-92.3,59.3-145.6C879.1,683.8,869.5,687.2,861.3,689.5z"/>
			<path d="M383.1,822.7c11.3-18.8,23.6-35.2,36.4-48.8c-14.7-20.8-25.6-43.7-32.3-68.1c-20.1-1.9-41.9-6.8-64.7-14.9
				c-3.3-1.2-6.8-2.5-10.5-4c7.5,54,29.8,104.5,65.1,146.5C379.2,829.5,381.2,825.9,383.1,822.7z"/>
			<path d="M394.5,503.4c9.2,3.3,18.4,7.5,27.3,12.5c6.7-9.1,14.1-17.8,22.3-25.9c16.8-16.8,35.9-30.6,56.5-41.1
				c-2.8-15.6-4.3-32.5-4.3-50.6c0-7,0.4-15.2,1.2-24.4c-38.2,14.4-73.2,36.9-102.9,66.6c-16.2,16.2-30.2,34-42,53
				C370.8,496.8,385.4,500.2,394.5,503.4z"/>
			<path d="M650.4,924.6c-12.7-19.9-22.2-39.4-28.5-58c-7.1,0.7-14.2,1-21.4,1c-5.1,0-10.2-0.2-15.3-0.5
				c-4.6,19.5-11.9,38.3-21.5,54.4c-2.1,3.6-5,7.8-8.6,12.6c14.9,2.3,30.1,3.5,45.4,3.5c18.7,0,37.2-1.8,55.2-5.2
				C653.7,929.7,652,927.1,650.4,924.6z"/>
			<path d="M703.8,399.8c0,15.4-2.3,31.6-6.5,47.5c21.8,10.6,42,24.9,59.7,42.6c5.9,5.9,11.5,12.1,16.6,18.6
				c9.3-4.4,18.7-8.1,28.1-10.7c9.6-2.7,25.1-5.5,44.5-8.1c-11.3-17.6-24.5-34.1-39.7-49.2c-30.2-30.2-65.9-52.9-104.8-67.3
				C703,384.1,703.8,393.2,703.8,399.8z"/>
		</g>
	</g>
	<g id="Layer_3_copy_2">
		<g>
			<path d="M692.2,315.2c58.6,15.4,112.4,46,156.4,90c23.4,23.4,43,49.6,58.6,77.8c17.1-1.6,35.3-3,53.9-4.3
				c-19.3-40.3-45.2-76.9-77.2-108.8c-36.4-36.4-78.7-64.9-125.9-84.9c-24.9-10.5-50.6-18.4-77-23.6
				C685.3,280.2,689,298.4,692.2,315.2z"/>
			<path d="M299.6,485.1c15.7-29,35.8-55.9,59.7-79.9c41.2-41.2,90.9-70.7,145.2-86.9c2.7-17.1,6-35.4,9.7-54.2
				c-22,5.1-43.5,12.1-64.5,20.9c-47.2,19.9-89.5,48.5-125.9,84.9c-31.9,31.9-57.8,68.4-77.1,108.7
				C265.2,480.6,283,482.8,299.6,485.1z"/>
			<path d="M949.9,652.5c-0.6,86.9-33.2,168.8-92,232.3c6.4,15.7,13,33.1,19.7,51.3c2.1-2,4.3-4.1,6.4-6.2
				c36.4-36.4,64.9-78.7,84.8-125.9c20.7-48.8,31.1-100.7,31.1-154.1c0-7.6-0.2-15.1-0.6-22.6C982.4,636.2,965.8,644.7,949.9,652.5z
				"/>
			<path d="M697.3,983.2c-30,8.4-61.3,12.7-93.3,12.7c-30.9,0-61.1-4-90.2-11.8c-11.3,12.8-23.9,26.6-37.3,40.9
				c40.9,13.9,83.6,21,127.4,21c45.1,0,89.2-7.5,131.2-22.2C721.6,1009.6,708.8,996,697.3,983.2z"/>
			<path d="M332.1,937.8c6.8-17.9,13.5-35,20.1-50.6c-58.2-61.7-91.3-141.1-94-225.8c-15.7-8.1-32.5-17.4-49.9-27.2
				c-0.2,5.2-0.3,10.5-0.3,15.7c0,53.4,10.5,105.3,31.1,154.1c19.9,47.2,48.5,89.5,84.9,125.9C326.7,932.5,329.4,935.2,332.1,937.8z
				"/>
		</g>
	</g>
	<g id="Layer_1_copy">
		<g>
			<circle cx="599.5" cy="649.4" r="102.5"/>
		</g>
		<path d="M598,506.1c40-0.2,71-60,71-107.8S615,9.9,598,9.9c-17,0-67,322-67,387.3S558,506.2,598,506.1z"/>
		<path d="M679.6,775.7c34.7-19.8,91.2,16,114.9,57c23.7,41,163.3,348.7,148.5,357.2c-14.7,8.5-235.2-231.3-267.5-287.2
			C643.2,846.7,644.8,795.6,679.6,775.7z"/>
		<path d="M524.4,776.8c34.6,20.2,31.7,87.1,7.9,128.2c-23.8,41.2-242.7,293.4-257.4,284.8S379.9,893.1,412.3,837
			S489.9,756.7,524.4,776.8z"/>
		<path d="M452.4,616.6c10.2-38.7-36.9-83.4-81-95.2C327.4,509.6,24.4,467.5,20,483.9c-4.4,16.4,254.6,154.4,314.7,170.5
			C394.8,670.5,442.2,655.3,452.4,616.6z"/>
		<path d="M746.7,619.3c-10.2-38.7,36.7-83.3,80.6-95.1c43.9-11.8,348.3-49.8,352.7-33.3c4.4,16.4-256,150.3-315.9,166.4
			S756.9,658,746.7,619.3z"/>
	</g>
</g>
</svg>
