<?xml version="1.0" encoding="UTF-8"?>
<svg id="logo" xmlns="http://www.w3.org/2000/svg" version="1.1" viewBox="0 0 1271 1271">
  <defs>
    <style>
      .cls-1 {
        fill: #f09a28;
      }

      .cls-1, .cls-2, .cls-3 {
        stroke-width: 0px;
      }

      .cls-4 {
        stroke-width: 55px;
      }

      .cls-4, .cls-5 {
        fill: none;
        stroke: #000;
        stroke-miterlimit: 10;
      }

      .cls-5 {
        stroke-width: 35px;
      }

      .cls-2 {
        fill: #000;
      }

      .cls-3 {
        fill: #fff;
      }

      .cls-6 {
        display: none;
      }
    </style>
  </defs>
  <g id="orig" class="cls-6">
    <g id="Layer_2" data-name="Layer 2">
      <circle class="cls-4" cx="629.6" cy="571.9" r="256.2"/>
      <circle class="cls-5" cx="629.7" cy="572.1" r="388.3"/>
    </g>
    <g id="Layer_3" data-name="Layer 3">
      <path class="cls-3" d="M690.8,473.2c50.6,32.5,136.9-14.9,174.7-73.1S1017.5,17.1,996,3.2s-252,203.2-303.6,282.6c-51.6,79.4-52.2,154.8-1.6,187.4Z"/>
      <path class="cls-3" d="M631,701.4c59.6,2.5,105.1,91.1,104.5,160.5-.6,83.7-93.8,406.8-100.9,406.5-25.3-1-105.4-318.2-104.6-412.9s41.4-156.6,101-154.1Z"/>
      <path class="cls-3" d="M516.7,621.4c27.6,52.8-28.9,132-91.3,162.6S18.9,890,7.1,867.6s235.5-223,320.7-264.8,161.3-34.3,188.9,18.6Z"/>
      <path class="cls-3" d="M543.7,491.4c46.7-34.8,30.9-129.5-10.7-183.8S224.4,43.2,204.5,57.9c-19.9,14.7,109.3,293.6,166,367.7s126.5,100.6,173.2,65.8Z"/>
      <path class="cls-3" d="M735.4,600.3c16.4-55.8,110.4-74,175.6-53.8,65.2,20.1,360.1,188.4,353.2,212.1-6.9,23.7-318.7,8.6-407.5-18.8-88.9-27.5-137.7-83.7-121.3-139.5Z"/>
    </g>
    <g id="Layer_3_copy" data-name="Layer 3 copy">
      <path class="cls-3" d="M690.8,473.2c50.6,32.5,136.9-14.9,174.7-73.1S1017.5,17.1,996,3.2s-252,203.2-303.6,282.6c-51.6,79.4-52.2,154.8-1.6,187.4Z"/>
      <path class="cls-3" d="M631,701.4c59.6,2.5,105.1,91.1,104.5,160.5-.6,83.7-93.8,406.8-100.9,406.5-25.3-1-105.4-318.2-104.6-412.9s41.4-156.6,101-154.1Z"/>
      <path class="cls-3" d="M516.7,621.4c27.6,52.8-28.9,132-91.3,162.6S18.9,890,7.1,867.6s235.5-223,320.7-264.8,161.3-34.3,188.9,18.6Z"/>
      <path class="cls-3" d="M543.7,491.4c46.7-34.8,30.9-129.5-10.7-183.8S224.4,43.2,204.5,57.9c-19.9,14.7,109.3,293.6,166,367.7s126.5,100.6,173.2,65.8Z"/>
      <path class="cls-3" d="M735.4,600.3c16.4-55.8,110.4-74,175.6-53.8,65.2,20.1,360.1,188.4,353.2,212.1-6.9,23.7-318.7,8.6-407.5-18.8-88.9-27.5-137.7-83.7-121.3-139.5Z"/>
    </g>
    <g id="Layer_1" data-name="Layer 1">
      <circle class="cls-2" cx="631.3" cy="569.4" r="102.5"/>
      <path class="cls-2" d="M719,431.6c33.6,21.6,92.2-11.6,118.3-51.8S1012.6,16.7,998.3,7.5c-14.2-9.2-240.6,241.5-276.2,296.3-35.5,54.7-36.7,106.1-3.1,127.8Z"/>
      <path class="cls-2" d="M635.5,746.6c39.9,2.3,67.8,63.1,65.3,110.4-2.5,47.3-52.5,410.4-69.5,409.5s-71.8-351.1-68.4-415.7c3.4-64.5,32.7-106.5,72.6-104.2Z"/>
      <path class="cls-2" d="M471.3,641.2c18,35.7-20.8,90.3-63.2,111.9S15,882.7,7.3,867.5s279.4-207.4,337.1-236.8,108.9-25.2,126.9,10.5Z"/>
      <path class="cls-2" d="M518.9,435.1c29.6-26.9,14.5-90-16-123.9C472.3,277.3,153-2.9,140.3,8.5c-12.6,11.4,217.6,348,259.3,394.2s89.7,59.3,119.3,32.4Z"/>
      <path class="cls-2" d="M798.8,618.5c12.5-38,76.2-49.9,119.4-35.9,43.2,14.1,348.4,152.7,343.1,168.9-5.3,16.2-325.8-18.2-384.8-37.3-58.9-19.2-90.2-57.7-77.7-95.7Z"/>
    </g>
  </g>
  <g id="Layer_6" data-name="Layer 6">
    <g class="cls-6">
      <path class="cls-1" d="M421.4,477.1c-14.1-10.6-28.1-23.9-41.5-39.8-26.2,48.3-37.5,102.5-33.1,157,18.8-7.7,37-13,54.2-15.8-1.1-35,5.8-69.5,20.4-101.4Z"/>
      <path class="cls-1" d="M860.8,407c-10.6,14.6-24.2,28.3-39.3,40,15.1,23.2,26,49.3,31.9,77.3,1,4.7,1.8,9.4,2.5,14.2,19.1,0,38.1,2.7,55.1,7.9.4,0,.8.3,1.3.4-1-11.3-2.7-22.7-5.1-33.9-8.2-38.7-24.1-74.6-46.4-105.9Z"/>
      <path class="cls-1" d="M533,307.6c10.4,13.6,19.2,29.7,25.8,46.8,7.6-2.5,15.4-4.6,23.3-6.2,16-3.4,32.1-5.1,48-5.1s21.9.8,32.7,2.4c5.6-16.6,13.8-33.9,24.5-51.5-38-7.9-77.5-7.9-116.6.4-13.4,2.9-26.5,6.6-39.2,11.3.5.6,1,1.3,1.5,1.9Z"/>
      <path class="cls-1" d="M856.7,739.7c-19-5.9-36.2-13.1-51.3-21.3-23.4,28.2-52.9,50-86.4,64.1,7.2,17.1,12.3,35.4,14.8,53.4,49.6-19.4,92.5-52.3,124.4-95.8-.6-.1-1-.2-1.5-.4Z"/>
      <path class="cls-1" d="M540.1,782.5c-12.1-5.2-23.8-11.4-35.1-18.7-9.2-6-17.9-12.6-26-19.6-13.1,13.6-28.1,25.5-43.8,34.6,12.2,11.4,25.5,21.9,39.9,31.2,17.6,11.5,36.2,20.8,55.5,28,1.3-20.5,4.5-39.1,9.5-55.5Z"/>
    </g>
    <g>
      <path class="cls-1" d="M318.8,370.2c2.9-4.5,5.9-8.8,8.9-13.1-6-10.8-12.1-22.2-18.3-34-7,9-13.7,18.4-20,28.1-29.8,45.9-49.8,96.3-59.3,149.8-9.2,51.7-8.3,104,2.7,155.5.4,2.1.9,4.2,1.4,6.3,10.7-7.8,21.2-15.1,31.1-21.9-17.7-94.2,1.1-190,53.5-270.7Z"/>
      <path class="cls-1" d="M916.8,285.3c-4.8,12.5-9.5,24.4-14.1,35.7,44.7,48.4,75.7,108,89.7,174.1,6.6,30.8,9.2,61.9,7.9,92.6,10.9,5.7,22.2,11.7,33.9,18,3.3-39.3.7-78.9-7.6-117.9-11-51.5-31.4-99.7-60.8-143.2-14.5-21.4-30.9-41.2-49-59.3Z"/>
      <path class="cls-1" d="M951.2,756.9c-3.3,5.8-6.8,11.5-10.5,17.1-50.2,77.4-125.7,132.2-214,156-2.2,11.9-4.9,24.7-7.7,37.9,49.7-11.2,96.2-31.2,138.3-59.7,45-30.4,82.9-69.2,112.8-115.1,6.8-10.5,13.1-21.2,18.8-32.1-13-1.2-25.6-2.6-37.7-4.1Z"/>
      <path class="cls-1" d="M537.6,931.5c-38.5-9.9-75.5-26.1-109.8-48.4-31.4-20.4-59-44.9-82.4-72.7-11.7,3.2-24.1,6.5-37,9.7,27.9,36.1,61.5,67.2,100.3,92.4,41.8,27.1,87.2,46.1,135.4,56.4-2.4-13-4.6-25.6-6.5-37.4Z"/>
      <path class="cls-1" d="M463.4,240.6c27.9-14,57.8-24.5,89.2-31.1,25.9-5.5,52-8.2,77.8-8.2,39.3,0,78.2,6.3,115.4,18.6,8.2-9,16.9-18.4,26-27.9-23-8.6-46.7-15.1-71.1-19.4-51.7-9.2-104-8.3-155.5,2.7-39,8.3-76.1,22.1-110.7,41,10.2,8.3,19.8,16.4,28.9,24.3Z"/>
    </g>
    <circle class="cls-1" cx="631.3" cy="569.4" r="102.5"/>
    <path class="cls-1" d="M719,431.6c33.6,21.6,92.2-11.6,118.3-51.8S1012.6,16.7,998.3,7.5c-14.2-9.2-240.6,241.5-276.2,296.3-35.5,54.7-36.7,106.1-3.1,127.8Z"/>
    <path class="cls-1" d="M635.5,746.6c39.9,2.3,67.8,63.1,65.3,110.4-2.5,47.3-52.5,410.4-69.5,409.5s-71.8-351.1-68.4-415.7c3.4-64.5,32.7-106.5,72.6-104.2Z"/>
    <path class="cls-1" d="M471.3,641.2c18,35.7-20.8,90.3-63.2,111.9S15,882.7,7.3,867.5s279.4-207.4,337.1-236.8,108.9-25.2,126.9,10.5Z"/>
    <path class="cls-1" d="M518.9,435.1c29.6-26.9,14.5-90-16-123.9C472.3,277.3,153-2.9,140.3,8.5c-12.6,11.4,217.6,348,259.3,394.2s89.7,59.3,119.3,32.4Z"/>
    <path class="cls-1" d="M798.8,618.5c12.5-38,76.2-49.9,119.4-35.9,43.2,14.1,348.4,152.7,343.1,168.9-5.3,16.2-325.8-18.2-384.8-37.3-58.9-19.2-90.2-57.7-77.7-95.7Z"/>
  </g>
</svg>